<?xml version="1.0" standalone="no"?>
<!DOCTYPE svg PUBLIC "-//W3C//DTD SVG 20010904//EN"
 "http://www.w3.org/TR/2001/REC-SVG-20010904/DTD/svg10.dtd">
<svg version="1.0" xmlns="http://www.w3.org/2000/svg"
 width="632.000000pt" height="206.000000pt" viewBox="0 0 632.000000 206.000000"
 preserveAspectRatio="xMidYMid meet">

<g transform="translate(0.000000,206.000000) scale(0.100000,-0.100000)"
fill="#000000" stroke="none">
<path d="M0 1030 l0 -1030 3160 0 3160 0 0 1030 0 1030 -3160 0 -3160 0 0
-1030z m1675 705 c30 -29 32 -74 6 -106 -19 -23 -25 -24 -180 -27 l-161 -3 0
-399 0 -399 -23 -27 c-17 -20 -33 -27 -57 -27 -24 0 -40 7 -57 27 l-23 27 0
399 0 399 -161 3 c-155 3 -161 4 -180 27 -26 32 -24 77 6 106 l24 25 391 0
391 0 24 -25z m700 0 c15 -14 25 -36 25 -52 0 -18 -87 -179 -255 -467 -140
-242 -260 -445 -267 -452 -13 -12 -37 -17 -70 -15 -26 2 -58 41 -58 71 0 30
498 895 531 923 30 24 66 21 94 -8z m775 9 c75 -22 162 -109 184 -184 22 -75
21 -119 -6 -147 -23 -24 -66 -30 -98 -13 -20 11 -40 59 -40 98 0 15 -15 39
-39 63 l-39 39 -188 0 c-170 0 -192 -2 -221 -20 -97 -59 -75 -209 36 -240 20
-5 109 -10 197 -10 206 0 246 -11 326 -91 45 -45 60 -68 74 -114 41 -144 -21
-287 -154 -352 -57 -28 -57 -28 -267 -28 -210 0 -210 0 -267 28 -69 34 -121
91 -148 164 -37 100 -20 166 46 179 44 8 82 -27 93 -88 20 -113 53 -128 281
-128 191 0 216 6 250 63 27 44 27 116 -1 151 -37 47 -62 53 -263 61 -223 8
-270 20 -340 91 -119 119 -110 308 19 422 72 64 103 70 321 71 147 1 203 -3
244 -15z m983 -18 c84 -32 141 -71 202 -138 86 -96 127 -204 127 -334 0 -222
-130 -406 -342 -481 -92 -32 -229 -32 -321 1 -183 64 -312 219 -340 408 -37
252 133 498 389 563 81 21 201 13 285 -19z m578 8 c9 -8 142 -165 295 -348
l279 -334 5 327 c5 351 6 352 57 372 27 10 70 -4 89 -29 11 -13 13 -114 14
-468 0 -442 0 -452 -21 -478 -25 -31 -76 -35 -107 -8 -11 9 -145 168 -298 352
l-279 335 -5 -333 -5 -334 -24 -19 c-32 -26 -77 -24 -106 6 l-25 24 0 451 0
452 30 30 c25 24 36 29 58 23 15 -3 34 -13 43 -21z m-4021 -94 c22 -12 40 -61
33 -90 -3 -11 -72 -72 -157 -137 -83 -64 -163 -127 -179 -139 l-27 -23 175
-136 c99 -77 180 -147 185 -161 20 -51 -34 -113 -87 -99 -32 8 -447 327 -469
360 -35 54 -20 71 224 260 232 179 254 191 302 165z m5225 -160 c238 -184 261
-210 234 -258 -19 -35 -436 -359 -472 -367 -54 -13 -107 47 -87 99 5 14 73 74
156 138 82 62 160 124 176 138 l28 25 -179 137 c-184 142 -198 157 -179 209
12 33 36 49 72 49 25 0 77 -36 251 -170z m-5176 -1022 c30 -100 31 -100 56
-28 12 36 28 65 35 65 7 0 23 -29 35 -65 22 -62 23 -64 33 -39 6 15 16 45 22
68 7 25 17 41 26 41 9 0 14 -4 12 -8 -2 -4 -16 -42 -32 -85 -16 -43 -34 -76
-40 -74 -6 2 -20 29 -31 60 -11 31 -22 57 -25 57 -4 0 -15 -26 -26 -57 -12
-31 -25 -58 -31 -60 -6 -2 -22 27 -36 64 -14 37 -28 76 -32 86 -5 11 -2 17 7
17 9 0 20 -18 27 -42z m731 27 c0 -10 -10 -15 -30 -15 -23 0 -30 -4 -30 -20 0
-15 7 -20 25 -20 14 0 25 -4 25 -10 0 -5 -11 -10 -25 -10 -21 0 -25 -5 -25
-30 0 -28 3 -30 35 -30 19 0 35 -4 35 -10 0 -5 -22 -10 -50 -10 l-50 0 0 85 0
85 45 0 c33 0 45 -4 45 -15z m421 4 c14 -7 20 -19 18 -37 -1 -15 4 -39 11 -54
19 -39 -8 -68 -62 -68 l-38 0 0 85 c0 85 0 85 26 85 14 0 34 -5 45 -11z m526
-11 c8 -8 17 -34 20 -56 5 -34 1 -44 -20 -66 -20 -20 -36 -26 -72 -26 l-45 0
0 86 0 87 51 -5 c28 -3 57 -12 66 -20z m483 7 c0 -10 -10 -15 -30 -15 -23 0
-30 -4 -30 -20 0 -15 7 -20 25 -20 14 0 25 -4 25 -10 0 -5 -11 -10 -25 -10
-21 0 -25 -5 -25 -30 0 -28 3 -30 35 -30 19 0 35 -4 35 -10 0 -5 -22 -10 -50
-10 l-50 0 0 85 0 85 45 0 c33 0 45 -4 45 -15z m379 -54 c13 -34 28 -58 31
-54 4 4 15 31 25 58 20 55 31 72 41 62 9 -8 -56 -167 -68 -167 -8 0 -57 99
-73 149 -5 17 -4 22 6 19 8 -3 25 -32 38 -67z m551 54 c0 -10 -10 -15 -30 -15
-23 0 -30 -4 -30 -20 0 -15 7 -20 25 -20 14 0 25 -4 25 -10 0 -5 -11 -10 -25
-10 -21 0 -25 -5 -25 -30 0 -28 3 -30 35 -30 19 0 35 -4 35 -10 0 -5 -22 -10
-50 -10 l-50 0 0 85 0 85 45 0 c33 0 45 -4 45 -15z m368 -63 l3 -72 34 0 c19
0 35 -4 35 -10 0 -5 -22 -10 -50 -10 l-50 0 0 86 c0 64 3 85 13 82 8 -3 13
-30 15 -76z m525 58 c33 -26 43 -70 23 -108 -38 -73 -146 -47 -146 35 0 43 15
72 43 83 35 14 52 12 80 -10z m495 4 c34 -24 26 -65 -15 -83 -26 -12 -33 -21
-33 -43 0 -18 -5 -28 -15 -28 -12 0 -15 16 -15 85 l0 85 28 0 c15 0 38 -7 50
-16z m452 1 c0 -10 -11 -15 -35 -15 -28 0 -35 -4 -35 -20 0 -15 7 -20 25 -20
14 0 25 -4 25 -10 0 -5 -11 -10 -25 -10 -21 0 -25 -5 -25 -30 0 -28 3 -30 35
-30 19 0 35 -4 35 -10 0 -5 -22 -10 -50 -10 l-50 0 0 78 c0 43 3 82 7 85 3 4
26 7 50 7 32 0 43 -4 43 -15z m438 -1 c26 -18 28 -41 7 -64 -14 -16 -14 -20
10 -48 28 -34 31 -42 13 -42 -7 0 -24 16 -38 35 -32 45 -50 45 -50 0 0 -19 -4
-35 -10 -35 -6 0 -10 35 -10 85 l0 85 28 0 c15 0 38 -7 50 -16z m-5891 -14
c-3 -12 0 -20 8 -20 7 0 15 9 18 20 3 11 11 20 17 20 7 0 10 -7 6 -17 -4 -9
-1 -20 6 -25 10 -6 9 -11 -4 -19 -10 -5 -18 -14 -18 -19 0 -6 8 -10 18 -11 14
0 13 -3 -5 -16 -13 -8 -23 -24 -23 -34 0 -11 -6 -19 -14 -19 -9 0 -12 8 -8 25
2 14 0 25 -7 25 -6 0 -13 -11 -17 -25 -8 -31 -27 -33 -22 -2 2 12 -4 27 -12
34 -13 11 -13 12 3 13 19 0 24 30 5 30 -6 0 -2 9 10 20 12 12 22 25 22 30 0 6
5 10 11 10 6 0 9 -9 6 -20z"/>
<path d="M3870 1591 c-98 -30 -177 -98 -227 -193 -24 -46 -27 -65 -28 -143 0
-77 4 -98 27 -147 34 -73 104 -142 176 -176 48 -22 71 -27 142 -27 104 0 174
29 245 100 221 220 61 599 -251 594 -32 0 -70 -4 -84 -8z"/>
<path d="M1850 456 c0 -17 5 -26 16 -26 10 0 14 7 12 22 -5 32 -28 35 -28 4z"/>
<path d="M1850 380 c0 -27 3 -31 23 -28 16 2 22 10 22 28 0 18 -6 26 -22 28
-20 3 -23 -1 -23 -28z"/>
<path d="M2330 415 c0 -62 1 -65 24 -65 34 0 56 25 56 65 0 36 -28 65 -62 65
-15 0 -18 -9 -18 -65z"/>
<path d="M4653 469 c-19 -7 -23 -16 -23 -52 0 -48 13 -67 45 -67 45 0 72 65
43 102 -18 21 -39 27 -65 17z"/>
<path d="M5170 450 c0 -23 4 -30 20 -30 25 0 28 45 4 54 -23 9 -24 8 -24 -24z"/>
<path d="M6057 473 c-10 -9 -8 -41 2 -47 16 -10 41 5 41 24 0 10 -7 21 -16 24
-19 7 -19 7 -27 -1z"/>
<path d="M206 415 c-3 -9 0 -15 9 -15 8 0 15 7 15 15 0 8 -4 15 -9 15 -5 0
-11 -7 -15 -15z"/>
</g>
</svg>
