<?xml version="1.0" standalone="no"?>
<!DOCTYPE svg PUBLIC "-//W3C//DTD SVG 20010904//EN"
 "http://www.w3.org/TR/2001/REC-SVG-20010904/DTD/svg10.dtd">
<svg version="1.0" xmlns="http://www.w3.org/2000/svg"
 width="500.000000pt" height="500.000000pt" viewBox="0 0 500.000000 500.000000"
 preserveAspectRatio="xMidYMid meet">

<g transform="translate(0.000000,500.000000) scale(0.100000,-0.100000)"
fill="#000000" stroke="none">
<path d="M0 2500 l0 -2500 2500 0 2500 0 0 2500 0 2500 -2500 0 -2500 0 0
-2500z m3454 890 c18 -17 18 -20 1 -71 -10 -30 -30 -81 -45 -114 -14 -33 -34
-87 -44 -120 -10 -33 -34 -100 -53 -150 -19 -49 -51 -135 -71 -190 -79 -224
-123 -352 -137 -395 -7 -25 -30 -88 -50 -140 -19 -52 -47 -126 -62 -165 -14
-38 -42 -110 -63 -160 -20 -49 -54 -134 -74 -187 -47 -121 -59 -133 -128 -125
-66 8 -98 39 -98 95 0 48 57 247 110 382 23 58 46 122 51 143 5 22 18 56 29
77 11 22 20 44 20 50 0 10 12 43 101 275 21 55 63 170 94 255 31 85 74 196 95
245 21 50 47 121 59 158 23 75 59 135 93 153 33 18 147 7 172 -16z m-966 -45
c67 -2 131 -9 141 -15 29 -15 44 -73 39 -151 -3 -59 -8 -73 -31 -97 l-27 -27
-187 -3 -186 -3 7 -387 c10 -523 7 -968 -6 -998 -13 -29 -54 -43 -139 -51 -93
-8 -117 0 -136 45 -14 32 -16 123 -19 705 -1 368 -5 671 -8 674 -3 3 -76 7
-162 10 -173 5 -203 13 -229 62 -11 22 -13 48 -8 112 5 73 10 87 33 111 l27
26 384 -4 c211 -2 439 -6 507 -9z m-1103 -276 c19 -35 30 -117 22 -151 -5 -18
-31 -35 -119 -75 -732 -336 -769 -355 -766 -377 3 -23 65 -57 267 -146 127
-57 212 -97 458 -216 l162 -79 1 -61 c0 -114 -50 -138 -196 -93 -38 12 -126
50 -196 85 -70 35 -185 89 -255 120 -124 55 -442 205 -553 262 -77 39 -97 81
-82 166 13 69 31 89 109 120 27 11 131 57 233 103 293 133 412 186 615 273
105 44 199 85 210 90 43 19 74 12 90 -21z m2248 -55 c79 -18 178 -59 307 -128
47 -24 134 -65 194 -91 60 -25 195 -88 300 -139 105 -51 232 -112 283 -136
105 -49 131 -72 139 -122 8 -46 -13 -142 -34 -161 -9 -9 -98 -52 -197 -97 -99
-45 -223 -101 -275 -125 -52 -24 -169 -75 -260 -115 -91 -39 -224 -98 -296
-131 -72 -32 -135 -59 -141 -59 -6 0 -32 -9 -58 -21 -81 -36 -109 -12 -125
104 -10 71 0 104 36 118 15 5 84 36 153 68 69 32 169 77 221 100 52 24 140 64
195 91 156 75 286 136 328 153 20 9 37 23 37 31 0 18 -64 61 -119 81 -45 16
-276 121 -396 180 -49 24 -130 63 -180 85 -49 23 -101 48 -115 56 -14 8 -50
26 -80 40 -90 40 -85 34 -81 110 4 78 13 101 44 114 31 12 39 12 120 -6z"/>
</g>
</svg>
