<?xml version="1.0" standalone="no"?>
<!DOCTYPE svg PUBLIC "-//W3C//DTD SVG 20010904//EN"
 "http://www.w3.org/TR/2001/REC-SVG-20010904/DTD/svg10.dtd">
<svg version="1.0" xmlns="http://www.w3.org/2000/svg"
 width="380.000000pt" height="381.000000pt" viewBox="0 0 380.000000 381.000000"
 preserveAspectRatio="xMidYMid meet">

<g transform="translate(0.000000,381.000000) scale(0.100000,-0.100000)"
fill="#000000" stroke="none">
<path d="M0 1905 l0 -1905 1900 0 1900 0 0 1905 0 1905 -1900 0 -1900 0 0
-1905z m2117 1850 c626 -82 1141 -452 1428 -1025 72 -143 137 -352 166 -535 8
-45 13 -162 13 -270 0 -200 -9 -284 -50 -447 -115 -462 -398 -852 -807 -1115
-410 -263 -948 -348 -1432 -227 -244 61 -456 164 -678 328 -97 72 -297 281
-379 396 -159 226 -273 508 -319 795 -17 104 -17 436 0 540 88 548 389 1004
855 1300 338 215 793 313 1203 260z"/>
<path d="M1585 3730 c-388 -69 -710 -235 -986 -510 -351 -350 -539 -799 -539
-1292 0 -275 53 -520 167 -772 144 -315 416 -619 713 -797 292 -175 599 -259
944 -259 188 0 313 16 473 59 328 90 583 238 815 472 213 217 343 421 437 692
120 343 135 725 41 1067 -93 340 -236 588 -479 830 -285 284 -618 452 -1017
514 -140 22 -435 20 -569 -4z m590 -34 c401 -74 716 -237 982 -507 140 -143
256 -305 347 -487 65 -129 134 -360 157 -527 17 -117 17 -386 0 -500 -25 -177
-92 -398 -159 -530 -308 -610 -877 -983 -1542 -1012 -717 -31 -1365 358 -1695
1016 -65 130 -131 353 -156 526 -17 114 -17 383 0 500 24 172 91 397 160 532
227 452 600 774 1076 931 75 25 245 60 345 72 104 12 388 4 485 -14z"/>
<path d="M1610 3670 c-194 -33 -332 -77 -505 -162 -171 -84 -295 -172 -446
-316 -274 -260 -458 -616 -520 -1007 -17 -105 -17 -406 -1 -520 64 -430 305
-847 647 -1120 436 -347 993 -467 1535 -330 438 110 822 391 1059 772 131 212
216 441 252 678 17 113 17 413 0 520 -104 651 -538 1180 -1151 1403 -262 95
-601 127 -870 82z m-205 -1537 c-3 -10 -47 -111 -97 -225 l-91 -208 -34 0
c-19 0 -32 3 -30 8 2 4 46 105 98 225 l94 217 33 0 c28 0 33 -3 27 -17z m1470
-233 c3 0 5 48 5 106 l0 105 38 -3 37 -3 3 -169 c2 -139 0 -167 -11 -163 -8 3
-92 51 -188 106 l-174 102 -3 -101 -3 -101 -42 3 -42 3 -3 155 c-1 85 0 160 2
167 4 8 67 -24 190 -97 102 -61 187 -110 191 -110z m-1635 170 l0 -40 -90 0
-90 0 0 -125 0 -125 -40 0 -40 0 0 125 0 125 -90 0 -90 0 0 40 0 40 220 0 220
0 0 -40z m530 29 c72 -16 70 -14 57 -49 -10 -26 -15 -30 -37 -25 -102 27 -248
26 -270 -1 -18 -20 14 -31 120 -38 165 -12 210 -35 210 -106 0 -69 -80 -110
-214 -110 -71 0 -182 22 -200 40 -5 5 -4 21 3 39 l13 29 41 -15 c45 -17 203
-23 250 -10 27 7 36 30 16 42 -5 4 -58 11 -117 16 -160 13 -212 38 -212 102 0
34 28 64 75 81 47 17 199 20 265 5z m562 -18 c60 -29 90 -70 95 -130 6 -67
-20 -109 -92 -146 -54 -27 -67 -30 -159 -30 -114 0 -161 13 -212 57 -63 56
-66 153 -6 211 52 50 114 68 227 64 80 -2 109 -7 147 -26z m-1602 -79 c0 -26
-7 -32 -57 -53 l-58 -25 58 -24 c53 -22 57 -26 57 -56 l0 -33 -52 24 c-156 69
-190 86 -186 90 5 6 221 103 231 104 4 1 7 -12 7 -27z m2430 -22 c63 -28 116
-53 119 -55 3 -4 -31 -21 -186 -90 l-53 -24 0 33 c0 31 4 35 48 51 26 10 51
21 55 25 5 4 -17 18 -47 31 -49 20 -56 26 -56 51 0 15 1 28 3 28 2 0 54 -23
117 -50z"/>
<path d="M2091 2030 c-55 -12 -91 -44 -91 -82 0 -71 47 -98 172 -98 94 0 143
18 167 62 22 38 6 78 -39 100 -43 21 -150 30 -209 18z"/>
</g>
</svg>
